<svg xmlns="http://www.w3.org/2000/svg" width="24" height="23.986" viewBox="0 0 24 23.986">
  <path id="Combined_Shape" data-name="Combined Shape" d="M3.515,20.473a12,12,0,0,1,16.97-16.96A11.993,11.993,0,0,1,12,23.986,11.926,11.926,0,0,1,3.515,20.473Zm.563-16.4A11.206,11.206,0,1,0,12,.795,11.123,11.123,0,0,0,4.077,4.074ZM9.993,18.8a1.767,1.767,0,0,1-.62-1.389,5.011,5.011,0,0,1,.046-.669c.031-.228.081-.484.149-.771l.773-2.731c.068-.262.127-.511.174-.743a3.359,3.359,0,0,0,.068-.643.99.99,0,0,0-.215-.728,1.225,1.225,0,0,0-.826-.2,2.167,2.167,0,0,0-.615.092c-.208.064-.389.122-.537.178l.2-.841q.759-.309,1.453-.529a4.288,4.288,0,0,1,1.31-.221,2.5,2.5,0,0,1,1.719.538,1.787,1.787,0,0,1,.6,1.4c0,.119-.014.328-.042.626a4.206,4.206,0,0,1-.154.824l-.769,2.722a7.58,7.58,0,0,0-.169.748,3.968,3.968,0,0,0-.074.635.916.916,0,0,0,.242.74,1.359,1.359,0,0,0,.841.2,2.4,2.4,0,0,0,.635-.1,3.61,3.61,0,0,0,.514-.172l-.206.84c-.617.244-1.109.428-1.478.557a3.906,3.906,0,0,1-1.282.192A2.554,2.554,0,0,1,9.993,18.8ZM11.766,7.547a1.6,1.6,0,0,1-.541-1.211,1.613,1.613,0,0,1,.541-1.215,1.841,1.841,0,0,1,1.3-.5,1.819,1.819,0,0,1,1.3.5,1.636,1.636,0,0,1,0,2.426,1.832,1.832,0,0,1-1.3.5A1.852,1.852,0,0,1,11.766,7.547Z"/>
</svg>
