<?xml version="1.0" encoding="UTF-8"?>
<svg width="22px" height="24px" viewBox="0 0 22 24" version="1.1" xmlns="http://www.w3.org/2000/svg" xmlns:xlink="http://www.w3.org/1999/xlink">
    <!-- Generator: Sketch 64 (93537) - https://sketch.com -->
    <title>icon warrantyConstructor</title>
    <desc>Created with Sketch.</desc>
    <g id="Reprise-suite-covid-vitrines" stroke="none" stroke-width="1" fill="none" fill-rule="evenodd">
        <g id="9---vitrine-access---DESKTOP" transform="translate(-499.000000, -170.000000)" fill="#FFFFFF" fill-rule="nonzero">
            <g id="Group-2" transform="translate(284.000000, 162.000000)">
                <g id="Group" transform="translate(34.000000, 0.000000)">
                    <path d="M191.459573,8.64948383 C191.664714,8.46665149 191.968942,8.44972874 192.193095,8.60868152 L192.193095,8.60868152 L192.554268,8.85274046 C192.638804,8.90836824 192.728234,8.96636937 192.822355,9.02649334 L192.822355,9.02649334 L193.118586,9.21298331 C193.857938,9.67191739 194.671539,10.1311404 195.533405,10.5593555 C197.266968,11.4206702 198.96801,12.0438714 200.5446,12.3278671 C201.158914,12.438525 201.745642,12.4955152 202.301034,12.4955152 C202.609347,12.4955152 202.865628,12.7329975 202.88907,13.040418 C202.890491,13.0590505 202.892172,13.0848836 202.893968,13.1177143 L202.893968,13.1177143 L202.9062,13.44127 C202.930491,14.4141008 202.859011,15.6584475 202.62436,17.0816864 C202.246417,19.3740456 201.513475,21.6392012 200.340146,23.760767 C198.57709,26.9486539 195.947807,29.5740422 192.32611,31.4348148 C192.171044,31.5144854 191.988674,31.5214652 191.827972,31.4538799 C191.733657,31.4142147 191.567705,31.337748 191.340296,31.2225119 L191.340296,31.2225119 L191.150611,31.1245317 C190.828948,30.9552761 190.480064,30.7561668 190.10986,30.5260377 C188.844922,29.7397157 187.581306,28.7509589 186.40147,27.5430893 C182.837388,23.8943216 180.783097,19.0698277 181.018217,12.9599657 C181.030892,12.6305755 181.311104,12.3755266 181.64023,12.3938075 L181.64023,12.3938075 L181.792914,12.3976786 C182.008298,12.4001432 182.28599,12.3926812 182.617674,12.369181 C183.191263,12.3285417 183.812389,12.2467654 184.467885,12.1142946 C186.255884,11.7529534 188.027415,11.0749745 189.680812,10.0052024 C190.300178,9.60446372 190.894144,9.15342449 191.459573,8.64948383 Z M191.895187,9.83105408 L191.623056,10.0557196 C191.202134,10.3936604 190.767931,10.7066621 190.321539,10.9954845 C188.536146,12.1506597 186.627108,12.8812638 184.701527,13.2704092 C183.788791,13.4548663 182.981038,13.5440401 182.31897,13.5699445 L182.31897,13.5699445 L182.182111,13.5741561 L182.179597,13.9682257 C182.19556,19.1765781 184.012899,23.3195754 187.060734,26.5274107 L187.060734,26.5274107 L187.245228,26.718915 C188.354939,27.8549944 189.544409,28.7857327 190.732557,29.5243199 C191.146893,29.7818832 191.530602,29.9966689 191.873439,30.1703959 L191.873439,30.1703959 L192.039674,30.2526922 L192.094297,30.2245806 C195.241879,28.5397118 197.557048,26.2366404 199.155534,23.4601059 L199.155534,23.4601059 L199.307993,23.1899358 C200.411553,21.1945223 201.103364,19.0564826 201.460584,16.8898137 C201.666366,15.6416709 201.739069,14.5434293 201.730539,13.6709001 L201.730339,13.65731 L201.663231,13.6539386 C201.33988,13.632965 201.009934,13.5964638 200.673751,13.5450431 L200.673751,13.5450431 L200.335501,13.4886717 C198.634715,13.1823043 196.833902,12.5225507 195.008588,11.6156498 C194.111323,11.1698466 193.265828,10.6926214 192.496543,10.2151072 C192.388631,10.1481237 192.285277,10.0830135 192.18668,10.0200258 L192.18668,10.0200258 L191.895187,9.83105408 Z M197.596241,16.0486569 C197.808834,16.26125 197.825188,16.5957708 197.645301,16.827122 L197.596241,16.8826802 L190.834956,23.6439659 L187.446944,20.3729676 C187.212624,20.1467404 187.206063,19.7733931 187.43229,19.5390731 C187.641115,19.3227777 187.975297,19.3005495 188.209773,19.4763435 L188.266185,19.5244197 L190.820084,21.989796 L196.762218,16.0486569 C196.992527,15.8183477 197.365932,15.8183477 197.596241,16.0486569 Z" id="icon-warrantyConstructor"></path>
                </g>
            </g>
        </g>
    </g>
</svg>